<svg width="250" height="250" viewBox="0 0 250 250" fill="none" xmlns="http://www.w3.org/2000/svg">
<path d="M245.192 125C245.192 191.38 191.38 245.192 125 245.192C58.6196 245.192 4.80768 191.38 4.80768 125C4.80768 58.6196 58.6196 4.80769 125 4.80769C191.38 4.80769 245.192 58.6196 245.192 125Z" fill="url(#paint0_angular_28_115)"/>
<path fill-rule="evenodd" clip-rule="evenodd" d="M250 125C250 194.036 194.036 250 125 250C55.9644 250 0 194.036 0 125C0 55.9644 55.9644 0 125 0C194.036 0 250 55.9644 250 125ZM125 245.192C191.38 245.192 245.192 191.38 245.192 125C245.192 58.6196 191.38 4.80769 125 4.80769C58.6196 4.80769 4.80769 58.6196 4.80769 125C4.80769 191.38 58.6196 245.192 125 245.192Z" fill="url(#paint1_angular_28_115)"/>
<path fill-rule="evenodd" clip-rule="evenodd" d="M125 216.346C175.449 216.346 216.346 175.449 216.346 125C216.346 74.5509 175.449 33.6538 125 33.6538C74.5509 33.6538 33.6539 74.5509 33.6539 125C33.6539 175.449 74.5509 216.346 125 216.346ZM125 221.154C178.104 221.154 221.154 178.104 221.154 125C221.154 71.8957 178.104 28.8461 125 28.8461C71.8957 28.8461 28.8462 71.8957 28.8462 125C28.8462 178.104 71.8957 221.154 125 221.154Z" fill="#242424"/>
<path d="M158.733 62.3846C162.656 62.3846 164.964 63.8077 165.656 66.6538C165.656 67.8077 164.541 69.0385 162.31 70.3461L158.502 69.3077H158.041C153.733 69.3077 148.81 75.4231 143.272 87.6538C142.502 90.6538 142.118 93.5385 142.118 96.3077V101.038H142.579C151.964 98.8077 157.964 97.6923 160.579 97.6923C163.964 98.3077 165.656 99.6538 165.656 101.731C164.964 103.885 163.849 104.962 162.31 104.962L160.233 104.615C152.387 105.308 146.618 106.5 142.925 108.192V109L144.31 127.692C144.31 136.538 142.541 140.962 139.002 140.962C137.772 140.962 136.656 140 135.656 138.077C136.887 134.923 137.502 130.962 137.502 126.192C137.502 121.346 137.041 115.846 136.118 109.692L130.579 110.385C125.579 109.923 123.079 108.346 123.079 105.654C123.849 103.5 125.079 102.423 126.772 102.423L129.656 103.231H131.733L135.425 102.769V96.3077C135.425 84.3846 140.695 73.9231 151.233 64.9231C153.618 63.2308 156.118 62.3846 158.733 62.3846Z" fill="black"/>
<path d="M108.923 68.0384C110.308 68.0384 111.269 69.2307 111.808 71.6154C111.808 73 109.385 74.923 104.538 77.3846C98.5385 82.6154 94.0769 91.6154 91.1538 104.385V106.462C97.8462 103.154 102.654 101.154 105.577 100.462C106.5 100.462 107.615 101.269 108.923 102.885V105.077C108.923 105.923 105.538 107.615 98.7692 110.154C93.6923 112.923 91.1538 114.5 91.1538 114.885V115.923C91.1538 120.231 93.9231 123.962 99.4615 127.115L103.385 127.808C105.923 127.808 109.692 126.231 114.692 123.077H116.077C117.692 123.846 118.5 124.962 118.5 126.423V127.115C113.731 132.115 108.462 134.615 102.692 134.615C94.4615 134.615 88.4615 129.077 84.6923 118L77.4231 119.5C73.8846 118.962 72.1154 117.808 72.1154 116.038C72.1154 114.269 73.1538 113 75.2308 112.231L77.8846 112.692C81.8846 111.538 83.8846 110.692 83.8846 110.154C83.8846 97.0769 88.8462 84.9615 98.7692 73.8077C103.769 69.9615 107.154 68.0384 108.923 68.0384Z" fill="black"/>
<mask id="mask0_28_115" style="mask-type:alpha" maskUnits="userSpaceOnUse" x="96" y="149" width="54" height="53">
<path d="M96.1538 149.038H149.038V201.923H96.1538V149.038Z" fill="#D9D9D9"/>
</mask>
<g mask="url(#mask0_28_115)">
<path d="M111.579 197.516V177.354C109.706 176.84 108.136 175.811 106.868 174.269C105.601 172.726 104.968 170.927 104.968 168.87V153.446H109.375V168.87H111.579V153.446H115.986V168.87H118.189V153.446H122.596V168.87C122.596 170.927 121.963 172.726 120.696 174.269C119.429 175.811 117.859 176.84 115.986 177.354V197.516H111.579ZM133.614 197.516V179.888H127.003V164.463C127.003 161.415 128.077 158.817 130.226 156.668C132.374 154.52 134.973 153.446 138.021 153.446V197.516H133.614Z" fill="#1C1B1F"/>
</g>
<defs>
<radialGradient id="paint0_angular_28_115" cx="0" cy="0" r="1" gradientUnits="userSpaceOnUse" gradientTransform="translate(125 125) rotate(180) scale(120.192 178.395)">
<stop offset="0.562619" stop-color="#FF914D"/>
<stop offset="1" stop-color="#FF3131"/>
</radialGradient>
<radialGradient id="paint1_angular_28_115" cx="0" cy="0" r="1" gradientUnits="userSpaceOnUse" gradientTransform="translate(125 125) rotate(180) scale(125 185.53)">
<stop offset="0.562619" stop-color="#FF914D"/>
<stop offset="1" stop-color="#FF3131"/>
</radialGradient>
</defs>
</svg>
